<?xml version="1.0" standalone="no"?>
<!DOCTYPE svg PUBLIC "-//W3C//DTD SVG 20010904//EN"
 "http://www.w3.org/TR/2001/REC-SVG-20010904/DTD/svg10.dtd">
<svg version="1.0" xmlns="http://www.w3.org/2000/svg"
 width="500.000000pt" height="500.000000pt" viewBox="0 0 500.000000 500.000000"
 preserveAspectRatio="xMidYMid meet">
<metadata>
Created by potrace 1.10, written by Peter Selinger 2001-2011
</metadata>
<g transform="translate(0.000000,500.000000) scale(0.050000,-0.050000)"
fill="#0642a2" stroke="none">
<path d="M2659 7502 c-156 -50 -221 -151 -281 -434 -102 -474 -50 -664 186
-683 270 -23 396 188 448 751 28 298 -113 444 -353 366z m109 -194 c49 -19 36
-169 -49 -584 -25 -120 -89 -174 -148 -124 -41 33 -39 83 19 390 53 287 90
352 178 318z"/>
<path d="M1863 7245 c-24 -140 -62 -354 -84 -475 -23 -121 -46 -254 -53 -295
l-11 -75 109 0 110 0 38 215 38 215 90 10 c138 15 182 228 45 218 -86 -7 -89
-1 -72 127 l12 95 115 0 c113 0 115 1 128 63 32 161 37 157 -205 157 l-217 0
-43 -255z"/>
<path d="M3232 7484 c-14 -24 -110 -613 -125 -768 -22 -237 52 -322 281 -319
247 4 306 136 466 1039 l12 66 -117 -6 -118 -6 -74 -410 c-80 -434 -104 -490
-197 -466 -59 16 -57 43 47 596 27 143 45 267 40 275 -12 20 -202 19 -215 -1z"/>
<path d="M4031 7475 c-18 -56 -190 -1006 -191 -1050 0 -17 35 -25 108 -25
l108 0 33 225 c18 124 40 279 49 345 l15 120 14 -90 c8 -49 29 -202 48 -340
l35 -250 113 -6 c132 -7 116 -31 174 276 22 116 63 328 92 473 71 366 73 350
-54 343 l-105 -6 -25 -130 c-13 -71 -30 -236 -38 -365 -14 -255 -37 -303 -56
-120 -21 190 -76 532 -93 580 -20 52 -212 69 -227 20z"/>
<path d="M4871 7478 c-6 -15 -28 -131 -50 -258 -64 -371 -98 -563 -120 -678
-12 -59 -21 -115 -21 -125 0 -29 374 -20 448 11 262 109 369 924 136 1031 -84
39 -381 53 -393 19z m294 -226 c41 -62 -9 -445 -75 -572 -60 -116 -176 -104
-148 15 9 41 35 186 58 322 22 137 46 256 52 266 14 22 92 1 113 -31z"/>
<path d="M5630 7476 c-5 -14 -28 -129 -51 -256 -23 -126 -63 -351 -90 -499
-27 -148 -49 -281 -49 -295 0 -20 54 -26 230 -26 206 0 230 4 230 35 0 19 6
69 13 110 l12 75 -109 0 c-136 0 -136 0 -108 126 l23 104 89 2 c88 1 90 2 104
80 26 149 26 149 -76 135 -84 -12 -92 -10 -82 25 6 21 16 72 23 113 l13 75
118 0 118 0 13 75 c7 41 14 89 16 105 4 41 -422 56 -437 16z"/>
<path d="M6211 7475 c-9 -31 -172 -1039 -172 -1060 1 -8 49 -15 107 -15 l106
0 29 225 c35 271 56 277 110 31 58 -266 51 -256 168 -256 120 0 118 -15 41
267 l-58 217 62 52 c134 113 182 368 89 476 -65 76 -463 128 -482 63z m306
-222 c13 -118 -41 -213 -120 -213 -39 0 -41 202 -3 266 26 43 116 3 123 -53z"/>
<path d="M6931 7435 c-132 -132 -119 -287 40 -487 151 -189 179 -379 53 -364
-50 6 -54 13 -60 112 l-6 106 -94 -6 -94 -6 -5 -120 c-11 -242 170 -360 404
-262 189 79 197 384 16 596 -105 122 -143 200 -130 266 22 112 131 68 121 -48
l-6 -72 92 -6 c104 -7 133 45 106 190 -32 171 -304 234 -437 101z"/>
<path d="M924 5950 c-182 -79 -189 -339 -14 -534 135 -151 169 -352 62 -373
-50 -9 -71 30 -72 132 l0 85 -100 0 c-66 0 -101 -9 -102 -25 -1 -14 -4 -47 -7
-74 -20 -189 79 -301 268 -301 330 0 402 359 132 654 -95 103 -123 174 -94
237 46 102 141 37 112 -77 -11 -46 -6 -50 70 -57 113 -11 129 4 127 118 -3
209 -174 305 -382 215z"/>
<path d="M1605 5964 c-91 -5 -105 -12 -105 -47 0 -23 -40 -264 -90 -537 -49
-273 -90 -502 -90 -509 0 -7 47 -10 105 -7 119 7 98 -30 167 301 l32 155 68 0
c80 0 81 -3 38 -227 -45 -237 -47 -233 69 -233 54 0 104 8 110 19 11 18 155
798 182 986 l14 95 -111 0 -110 0 -13 -105 c-34 -272 -48 -310 -117 -320 -92
-14 -91 -17 -51 209 40 233 43 228 -98 220z"/>
<path d="M5480 5945 c-198 -99 -340 -888 -185 -1027 125 -111 385 -72 452 69
37 78 93 327 93 415 l0 60 -125 -6 -124 -6 -14 -80 c-11 -61 -6 -86 18 -105
75 -58 -32 -243 -110 -192 -100 64 42 744 151 723 27 -5 34 -29 34 -106 l0
-100 88 -6 c177 -13 183 326 7 375 -110 30 -206 26 -285 -14z"/>
<path d="M6548 5962 c-61 -27 -125 -115 -150 -210 -69 -254 -110 -549 -100
-729 7 -134 261 -217 422 -138 65 32 138 181 153 312 l13 103 -103 0 c-95 0
-103 -4 -114 -55 -35 -158 -71 -204 -139 -178 -66 26 45 691 120 720 73 28 95
-7 81 -130 l-13 -117 99 0 c112 0 123 21 123 230 0 157 -37 193 -211 202 -77
5 -158 0 -181 -10z"/>
<path d="M7264 5950 c-114 -50 -183 -161 -225 -364 -103 -502 -74 -674 125
-727 291 -78 440 139 499 723 34 345 -121 488 -399 368z m189 -200 c18 -48
-84 -623 -119 -666 -67 -84 -124 -19 -120 136 4 157 72 489 109 534 30 35 116
33 130 -4z"/>
<path d="M2290 5941 c-6 -11 -38 -180 -71 -375 -33 -196 -74 -421 -91 -501
-42 -193 -35 -209 97 -201 l105 6 34 210 c45 280 129 757 147 825 l13 55 -111
0 c-61 0 -116 -9 -123 -19z"/>
<path d="M2694 5945 c-5 -8 -25 -123 -44 -255 -20 -132 -61 -366 -91 -520 -64
-323 -66 -310 60 -310 109 0 98 -17 141 230 34 193 34 193 85 189 138 -11 181
2 256 77 146 146 185 459 70 558 -54 47 -453 73 -477 31z m313 -284 c-3 -92
-12 -117 -56 -155 -44 -38 -131 -64 -131 -40 0 18 44 249 53 280 29 101 137
32 134 -85z"/>
<path d="M3412 5937 c-16 -52 -30 -129 -63 -347 -17 -121 -54 -327 -81 -457
-26 -131 -48 -246 -48 -256 0 -9 48 -17 107 -17 l108 0 38 205 39 205 105 5
c57 2 122 14 143 25 163 87 252 467 141 604 -46 56 -473 85 -489 33z m315
-263 c-4 -113 -47 -188 -118 -206 -71 -18 -74 -9 -49 135 31 180 31 180 105
173 64 -6 65 -7 62 -102z"/>
<path d="M4129 5939 c-7 -11 -39 -180 -70 -375 -32 -195 -73 -424 -90 -509
-38 -186 -34 -195 93 -195 117 0 106 -22 158 310 35 228 88 519 131 725 l14
65 -111 0 c-62 0 -117 -9 -125 -21z"/>
<path d="M4511 5776 c-187 -1004 -185 -924 -28 -912 l87 6 34 230 c18 127 34
277 35 335 2 193 32 108 76 -216 51 -376 44 -359 151 -359 139 1 129 -27 273
760 23 127 48 255 54 285 12 55 11 55 -100 55 -110 0 -111 -1 -122 -65 -29
-174 -50 -341 -63 -501 -17 -220 -21 -214 -59 78 -18 131 -42 292 -55 358
l-24 120 -112 6 -113 6 -34 -186z"/>
<path d="M7690 5002 c-17 -127 -7 -142 99 -142 104 0 125 22 134 140 l7 90
-113 6 -113 6 -14 -100z"/>
<path d="M1961 4665 c-819 -3 -1297 -13 -1309 -25 -13 -13 261 -20 811 -20
457 0 1062 -6 1346 -13 499 -13 515 -12 508 25 -4 20 -21 38 -37 38 -17 0
-610 -2 -1319 -5z"/>
<path d="M5002 4635 c-107 -55 -177 -249 -224 -617 -41 -314 8 -398 232 -398
186 0 260 78 299 315 l15 85 -101 0 c-107 0 -106 1 -133 -134 -13 -63 -68
-102 -110 -76 -43 26 -3 340 73 576 57 177 139 110 106 -86 -13 -74 168 -89
188 -16 20 73 15 255 -7 296 -37 70 -244 103 -338 55z"/>
<path d="M3893 4605 c-5 -19 -15 -80 -22 -135 -14 -111 -79 -469 -123 -674
-15 -74 -28 -143 -28 -155 0 -24 392 -30 407 -6 4 8 15 53 22 100 l15 85 -92
0 c-79 0 -92 6 -92 41 0 50 95 604 119 693 22 80 15 86 -101 86 -74 0 -97 -8
-105 -35z"/>
<path d="M4381 4495 c-13 -80 -52 -293 -85 -475 -34 -181 -62 -343 -64 -360
-2 -24 34 -31 186 -36 213 -6 215 -5 234 111 l13 85 -92 0 c-78 0 -93 6 -93
38 0 36 109 640 133 737 11 43 5 45 -98 45 l-109 0 -25 -145z"/>
<path d="M2111 4545 c-653 -3 -1047 -13 -1059 -25 -13 -13 374 -20 1141 -20
639 0 1190 -6 1225 -12 54 -11 62 -7 62 30 0 40 -9 42 -165 37 -91 -2 -633 -7
-1204 -10z"/>
<path d="M6372 4455 c-16 -25 -35 -79 -43 -120 l-13 -75 -259 0 c-168 0 -255
-7 -247 -20 7 -12 -14 -20 -50 -20 -41 0 -58 -8 -49 -22 10 -16 116 -20 352
-14 l337 9 0 -46 c0 -46 -4 -47 -187 -47 -274 0 -673 -24 -673 -40 0 -14 431
-40 715 -43 130 -1 145 -5 145 -40 0 -26 -12 -38 -35 -36 -130 13 -666 -4
-655 -21 7 -11 34 -20 61 -20 27 0 49 -9 49 -20 0 -12 97 -20 250 -20 l249 0
12 -55 c38 -180 146 -186 181 -10 18 95 96 92 128 -5 35 -107 122 -87 119 27
0 21 -12 12 -32 -25 l-32 -59 -27 49 c-42 75 -35 80 87 74 102 -5 116 -11 121
-51 8 -52 54 -60 72 -13 18 48 15 55 -16 30 -21 -18 -30 -16 -39 7 -10 26 9
31 113 31 185 1 452 95 481 170 33 84 -276 230 -485 230 l-116 0 -13 -108
c-22 -182 -2 -232 90 -232 55 0 77 8 77 30 0 17 18 30 40 30 22 0 40 -9 40
-21 0 -13 30 -17 75 -10 l75 10 -80 -28 c-44 -15 -131 -29 -193 -29 -71 -1
-117 -11 -124 -27 -8 -20 -10 -20 -11 0 -1 14 -27 26 -57 28 -47 2 -49 4 -10
11 41 8 45 20 45 132 0 68 6 144 13 169 11 43 6 45 -101 45 -61 0 -112 4 -112
9 0 5 10 32 23 60 25 55 77 38 77 -25 0 -17 6 -25 12 -18 7 7 7 35 0 63 -19
76 -84 67 -114 -17 l-24 -67 -137 -2 -137 -1 12 54 c36 154 92 169 143 38 l26
-64 -11 69 c-19 123 -89 172 -138 96z m265 -399 c0 -129 -7 -193 -18 -175 -32
50 -21 379 12 379 3 0 6 -92 6 -204z m-401 169 c-52 -4 -142 -4 -200 0 -58 4
-16 8 94 8 110 0 158 -4 106 -8z m255 -420 c-31 -124 -74 -131 -121 -19 l-31
74 83 0 c80 0 82 -2 69 -55z"/>
<path d="M1700 4421 l-530 -11 818 -15 c1243 -23 1412 -21 1412 15 0 32 -462
35 -1700 11z"/>
<path d="M6882 4316 c0 -25 6 -34 12 -20 8 21 16 21 40 0 26 -21 29 -19 23 14
-11 59 -77 65 -75 6z"/>
<path d="M2440 4320 c-513 -5 -890 -17 -840 -25 219 -36 1960 -27 1960 10 0
29 -16 34 -95 30 -52 -2 -513 -9 -1025 -15z"/>
<path d="M1429 4199 c-84 -16 705 -39 1314 -39 449 0 517 4 517 30 0 31 -1670
39 -1831 9z"/>
<path d="M2561 4105 c-446 -3 -737 -13 -749 -25 -13 -13 205 -20 639 -20 362
0 733 -6 824 -13 159 -12 165 -11 165 30 0 37 -10 42 -75 38 -41 -2 -403 -7
-804 -10z"/>
<path d="M2615 3985 c-347 -4 -555 -13 -555 -25 0 -13 247 -20 678 -20 373 0
693 -5 710 -12 23 -9 32 0 32 30 0 39 -9 42 -155 37 -85 -2 -405 -7 -710 -10z"/>
<path d="M2410 3860 l-220 -12 310 -4 c171 -2 438 -10 595 -17 257 -12 285
-10 285 20 0 35 -452 41 -970 13z"/>
<path d="M2820 3761 c-525 -14 -391 -41 204 -41 327 0 418 6 411 25 -10 30
-62 31 -615 16z"/>
</g>
</svg>
